G04 #@! TF.GenerationSoftware,KiCad,Pcbnew,8.0.9-8.0.9-0~ubuntu22.04.1*
G04 #@! TF.CreationDate,2025-06-10T23:15:17+02:00*
G04 #@! TF.ProjectId,comixino,636f6d69-7869-46e6-9f2e-6b696361645f,rev?*
G04 #@! TF.SameCoordinates,Original*
G04 #@! TF.FileFunction,Soldermask,Bot*
G04 #@! TF.FilePolarity,Negative*
%FSLAX46Y46*%
G04 Gerber Fmt 4.6, Leading zero omitted, Abs format (unit mm)*
G04 Created by KiCad (PCBNEW 8.0.9-8.0.9-0~ubuntu22.04.1) date 2025-06-10 23:15:17*
%MOMM*%
%LPD*%
G01*
G04 APERTURE LIST*
%ADD10C,1.400000*%
%ADD11O,1.400000X1.400000*%
%ADD12R,1.800000X1.800000*%
%ADD13C,1.800000*%
%ADD14C,5.600000*%
%ADD15C,2.000000*%
%ADD16R,1.600000X1.600000*%
%ADD17O,1.600000X1.600000*%
%ADD18C,1.780000*%
%ADD19R,1.700000X1.700000*%
%ADD20O,1.700000X1.700000*%
%ADD21R,8.890000X1.397000*%
G04 APERTURE END LIST*
D10*
X135650000Y-109550000D03*
D11*
X143270000Y-109550000D03*
D10*
X135670000Y-107050000D03*
D11*
X143290000Y-107050000D03*
D12*
X140800000Y-102350000D03*
D13*
X143340000Y-102350000D03*
D12*
X134450000Y-102350000D03*
D13*
X136990000Y-102350000D03*
D14*
X96100000Y-60350000D03*
D15*
X121475000Y-115450000D03*
X121475000Y-121950000D03*
X116975000Y-115450000D03*
X116975000Y-121950000D03*
X113416700Y-115450000D03*
X113416700Y-121950000D03*
X108916700Y-115450000D03*
X108916700Y-121950000D03*
X105358300Y-115450000D03*
X105358300Y-121950000D03*
X100858300Y-115450000D03*
X100858300Y-121950000D03*
X137591700Y-115450000D03*
X137591700Y-121950000D03*
X133091700Y-115450000D03*
X133091700Y-121950000D03*
D14*
X86400000Y-120250000D03*
D16*
X138450000Y-81560000D03*
D17*
X138450000Y-73940000D03*
D18*
X103590000Y-99720000D03*
X103590000Y-59080000D03*
X88350000Y-99720000D03*
X88350000Y-59080000D03*
D16*
X103590000Y-97180000D03*
D17*
X103590000Y-94640000D03*
X103590000Y-92100000D03*
X103590000Y-89560000D03*
X103590000Y-87020000D03*
X103590000Y-84480000D03*
X103590000Y-81940000D03*
X103590000Y-79400000D03*
X103590000Y-76860000D03*
X103590000Y-74320000D03*
X103590000Y-71780000D03*
X103590000Y-69240000D03*
X103590000Y-66700000D03*
X103590000Y-64160000D03*
X103590000Y-61620000D03*
X88350000Y-61620000D03*
X88350000Y-64160000D03*
X88350000Y-66700000D03*
X88350000Y-69240000D03*
X88350000Y-71780000D03*
X88350000Y-74320000D03*
X88350000Y-76860000D03*
X88350000Y-79400000D03*
X88350000Y-81940000D03*
X88350000Y-84480000D03*
X88350000Y-87020000D03*
X88350000Y-89560000D03*
X88350000Y-92100000D03*
X88350000Y-94640000D03*
X88350000Y-97180000D03*
D19*
X125770000Y-63550000D03*
D20*
X125770000Y-61010000D03*
X128310000Y-63550000D03*
X128310000Y-61010000D03*
X130850000Y-63550000D03*
X130850000Y-61010000D03*
D14*
X152950000Y-60350000D03*
D15*
X97300000Y-115450000D03*
X97300000Y-121950000D03*
X92800000Y-115450000D03*
X92800000Y-121950000D03*
D19*
X138635000Y-61025000D03*
D20*
X141175000Y-61025000D03*
X143715000Y-61025000D03*
D15*
X145650000Y-115450000D03*
X145650000Y-121950000D03*
X141150000Y-115450000D03*
X141150000Y-121950000D03*
D10*
X142340000Y-73940000D03*
D11*
X142340000Y-81560000D03*
D19*
X146950000Y-109420000D03*
D20*
X146950000Y-106880000D03*
X146950000Y-104340000D03*
X146950000Y-101800000D03*
D10*
X135540000Y-73940000D03*
D11*
X135540000Y-81560000D03*
D19*
X128800000Y-108500000D03*
D20*
X126260000Y-108500000D03*
X123720000Y-108500000D03*
X121180000Y-108500000D03*
X118640000Y-108500000D03*
X116100000Y-108500000D03*
X113560000Y-108500000D03*
X111020000Y-108500000D03*
D14*
X152950000Y-120250000D03*
D19*
X116160000Y-63575000D03*
D20*
X116160000Y-61035000D03*
X118700000Y-63575000D03*
X118700000Y-61035000D03*
X121240000Y-63575000D03*
X121240000Y-61035000D03*
D15*
X129533300Y-115450000D03*
X129533300Y-121950000D03*
X125033300Y-115450000D03*
X125033300Y-121950000D03*
D14*
X118620000Y-86650000D03*
D16*
X145400000Y-73980000D03*
D17*
X145400000Y-81600000D03*
D19*
X99450000Y-103750000D03*
D20*
X101990000Y-103750000D03*
D19*
X138650000Y-95300000D03*
D20*
X141190000Y-95300000D03*
X143730000Y-95300000D03*
X146270000Y-95300000D03*
X148810000Y-95300000D03*
X151350000Y-95300000D03*
D19*
X158600000Y-63340000D03*
D20*
X161140000Y-63340000D03*
X158600000Y-65880000D03*
X161140000Y-65880000D03*
X158600000Y-68420000D03*
X161140000Y-68420000D03*
X158600000Y-70960000D03*
X161140000Y-70960000D03*
X158600000Y-73500000D03*
X161140000Y-73500000D03*
X158600000Y-76040000D03*
X161140000Y-76040000D03*
X158600000Y-78580000D03*
X161140000Y-78580000D03*
X158600000Y-81120000D03*
X161140000Y-81120000D03*
X158600000Y-83660000D03*
X161140000Y-83660000D03*
X158600000Y-86200000D03*
X161140000Y-86200000D03*
X158600000Y-88740000D03*
X161140000Y-88740000D03*
X158600000Y-91280000D03*
X161140000Y-91280000D03*
X158600000Y-93820000D03*
X161140000Y-93820000D03*
X158600000Y-96360000D03*
X161140000Y-96360000D03*
X158600000Y-98900000D03*
X161140000Y-98900000D03*
X158600000Y-101440000D03*
X161140000Y-101440000D03*
X158600000Y-103980000D03*
X161140000Y-103980000D03*
X158600000Y-106520000D03*
X161140000Y-106520000D03*
X158600000Y-109060000D03*
X161140000Y-109060000D03*
X158600000Y-111600000D03*
X161140000Y-111600000D03*
X158600000Y-114140000D03*
X161140000Y-114140000D03*
X158600000Y-116680000D03*
X161140000Y-116680000D03*
D19*
X108560000Y-60950000D03*
D20*
X111100000Y-60950000D03*
D19*
X115550000Y-74300000D03*
D20*
X118090000Y-74300000D03*
X120630000Y-74300000D03*
X123170000Y-74300000D03*
D19*
X91340000Y-103750000D03*
D20*
X88800000Y-103750000D03*
D21*
X68699400Y-63627100D03*
X68699400Y-66167100D03*
X68699400Y-68707100D03*
X68699400Y-71247100D03*
X68699400Y-73787100D03*
X68699400Y-76327100D03*
X68699400Y-78867100D03*
X68699400Y-81407100D03*
X68699400Y-83947100D03*
X68699400Y-86487100D03*
X68699400Y-89027100D03*
X68699400Y-91567100D03*
X68699400Y-94107100D03*
X68699400Y-96647100D03*
X68699400Y-99187100D03*
X68699400Y-101727100D03*
X68699400Y-104267100D03*
X68699400Y-106807100D03*
X68699400Y-109347100D03*
X68699400Y-111887100D03*
X68699400Y-114427100D03*
X68699400Y-116967100D03*
M02*
