M48
; DRILL file {KiCad 8.0.9-8.0.9-0~ubuntu22.04.1} date 2025-06-10T23:15:11+0200
; FORMAT={-:-/ absolute / inch / decimal}
; #@! TF.CreationDate,2025-06-10T23:15:11+02:00
; #@! TF.GenerationSoftware,Kicad,Pcbnew,8.0.9-8.0.9-0~ubuntu22.04.1
; #@! TF.FileFunction,Plated,1,2,PTH
FMAT,2
INCH
; #@! TA.AperFunction,Plated,PTH,ViaDrill
T1C0.0157
; #@! TA.AperFunction,Plated,PTH,ViaDrill
T2C0.0197
; #@! TA.AperFunction,Plated,PTH,ComponentDrill
T3C0.0276
; #@! TA.AperFunction,Plated,PTH,ComponentDrill
T4C0.0315
; #@! TA.AperFunction,Plated,PTH,ComponentDrill
T5C0.0354
; #@! TA.AperFunction,Plated,PTH,ComponentDrill
T6C0.0394
; #@! TA.AperFunction,Plated,PTH,ComponentDrill
T7C0.0433
; #@! TA.AperFunction,Plated,PTH,ComponentDrill
T8C0.1260
%
G90
G05
T1
X2.9045Y-4.1357
X2.9196Y-2.6429
X2.941Y-3.7535
X2.9561Y-3.3933
X2.9744Y-4.414
X3.0505Y-4.1736
X3.0973Y-4.1381
X3.1128Y-4.0085
X3.1156Y-4.5025
X3.382Y-4.3261
X3.4143Y-4.1195
X3.4768Y-4.6175
X3.5782Y-3.2782
X3.5965Y-4.6355
X3.9163Y-4.232
X3.9289Y-3.8141
X3.9935Y-3.2241
X4.1233Y-2.692
X4.1636Y-2.6516
X4.492Y-2.8962
X4.7436Y-3.1633
X4.7566Y-3.6448
X4.8039Y-2.8135
X4.8968Y-2.9861
X5.4545Y-3.1333
X5.4722Y-2.6048
X5.8983Y-2.7011
X6.1494Y-3.8985
T2
X2.9091Y-2.4992
X3.0152Y-2.6322
X3.3042Y-2.7244
X3.6134Y-3.5175
T3
X5.3362Y-2.911
X5.3362Y-3.211
X5.3406Y-4.313
X5.3413Y-4.2146
X5.6039Y-2.911
X5.6039Y-3.211
X5.6406Y-4.313
X5.6413Y-4.2146
T4
X5.4508Y-2.911
X5.4508Y-3.211
X5.7244Y-2.9126
X5.7244Y-3.2126
T5
X5.2933Y-4.0295
X5.3933Y-4.0295
X5.5433Y-4.0295
X5.6433Y-4.0295
T6
X3.4783Y-2.426
X3.4783Y-2.526
X3.4783Y-2.626
X3.4783Y-2.726
X3.4783Y-2.826
X3.4783Y-2.926
X3.4783Y-3.026
X3.4783Y-3.126
X3.4783Y-3.226
X3.4783Y-3.326
X3.4783Y-3.426
X3.4783Y-3.526
X3.4783Y-3.626
X3.4783Y-3.726
X3.4783Y-3.826
X3.4961Y-4.0846
X3.5961Y-4.0846
X3.9154Y-4.0846
X4.0154Y-4.0846
X4.0783Y-2.426
X4.0783Y-2.526
X4.0783Y-2.626
X4.0783Y-2.726
X4.0783Y-2.826
X4.0783Y-2.926
X4.0783Y-3.026
X4.0783Y-3.126
X4.0783Y-3.226
X4.0783Y-3.326
X4.0783Y-3.426
X4.0783Y-3.526
X4.0783Y-3.626
X4.0783Y-3.726
X4.0783Y-3.826
X4.274Y-2.3996
X4.3709Y-4.2717
X4.374Y-2.3996
X4.4709Y-4.2717
X4.5492Y-2.9252
X4.5709Y-4.2717
X4.5732Y-2.403
X4.5732Y-2.503
X4.6492Y-2.9252
X4.6709Y-4.2717
X4.6732Y-2.403
X4.6732Y-2.503
X4.7492Y-2.9252
X4.7709Y-4.2717
X4.7732Y-2.403
X4.7732Y-2.503
X4.8492Y-2.9252
X4.8709Y-4.2717
X4.9516Y-2.402
X4.9516Y-2.502
X4.9709Y-4.2717
X5.0516Y-2.402
X5.0516Y-2.502
X5.0709Y-4.2717
X5.1516Y-2.402
X5.1516Y-2.502
X5.4581Y-2.4026
X5.4587Y-3.752
X5.5581Y-2.4026
X5.5587Y-3.752
X5.6581Y-2.4026
X5.6587Y-3.752
X5.7587Y-3.752
X5.7854Y-4.0079
X5.7854Y-4.1079
X5.7854Y-4.2079
X5.7854Y-4.3079
X5.8587Y-3.752
X5.9587Y-3.752
X6.2441Y-2.4937
X6.2441Y-2.5937
X6.2441Y-2.6937
X6.2441Y-2.7937
X6.2441Y-2.8937
X6.2441Y-2.9937
X6.2441Y-3.0937
X6.2441Y-3.1937
X6.2441Y-3.2937
X6.2441Y-3.3937
X6.2441Y-3.4937
X6.2441Y-3.5937
X6.2441Y-3.6937
X6.2441Y-3.7937
X6.2441Y-3.8937
X6.2441Y-3.9937
X6.2441Y-4.0937
X6.2441Y-4.1937
X6.2441Y-4.2937
X6.2441Y-4.3937
X6.2441Y-4.4937
X6.2441Y-4.5937
X6.3441Y-2.4937
X6.3441Y-2.5937
X6.3441Y-2.6937
X6.3441Y-2.7937
X6.3441Y-2.8937
X6.3441Y-2.9937
X6.3441Y-3.0937
X6.3441Y-3.1937
X6.3441Y-3.2937
X6.3441Y-3.3937
X6.3441Y-3.4937
X6.3441Y-3.5937
X6.3441Y-3.6937
X6.3441Y-3.7937
X6.3441Y-3.8937
X6.3441Y-3.9937
X6.3441Y-4.0937
X6.3441Y-4.1937
X6.3441Y-4.2937
X6.3441Y-4.3937
X6.3441Y-4.4937
X6.3441Y-4.5937
T7
X3.6535Y-4.5453
X3.6535Y-4.8012
X3.8307Y-4.5453
X3.8307Y-4.8012
X3.9708Y-4.5453
X3.9708Y-4.8012
X4.148Y-4.5453
X4.148Y-4.8012
X4.2881Y-4.5453
X4.2881Y-4.8012
X4.4652Y-4.5453
X4.4652Y-4.8012
X4.6053Y-4.5453
X4.6053Y-4.8012
X4.7825Y-4.5453
X4.7825Y-4.8012
X4.9226Y-4.5453
X4.9226Y-4.8012
X5.0997Y-4.5453
X5.0997Y-4.8012
X5.2398Y-4.5453
X5.2398Y-4.8012
X5.417Y-4.5453
X5.417Y-4.8012
X5.5571Y-4.5453
X5.5571Y-4.8012
X5.7343Y-4.5453
X5.7343Y-4.8012
T8
X3.4016Y-4.7343
X3.7835Y-2.376
X4.6701Y-3.4114
X6.0217Y-2.376
X6.0217Y-4.7343
M30
